<?xml version="1.0" encoding="UTF-8"?>
<svg xmlns="http://www.w3.org/2000/svg" width="1200" height="800" viewBox="0 0 1200 800" role="img" aria-labelledby="title desc">
<title id="title">Architecture effects, ablations, and scenario-specific performance</title>
<desc id="desc">Publication figure for the synthetic hospital cybersecurity benchmark.</desc>
<rect width="1200" height="800" fill="white"/>
<style>
text { font-family: Arial, Helvetica, sans-serif; fill: #17212B; }
.muted { fill: #5B6672; }
.bold { font-weight: 700; }
.semibold { font-weight: 600; }
.panel { fill: white; stroke: #D7E0E6; stroke-width: 1; }
</style>
<text x="34" y="52" font-size="28" font-weight="700" fill="#17212B" text-anchor="start" class="">Architecture effects, ablations, and scenario-specific performance</text>
<text x="34" y="78" font-size="16" font-weight="400" fill="#5B6672" text-anchor="start" class="">Paired family-level inference, recent-KEV retrieval dependence, and stratum-specific F1</text>
<line x1="34" y1="92" x2="1166" y2="92" stroke="#17212B" stroke-width="1.5"/>
<text x="34" y="141" font-size="28" font-weight="700" fill="#17212B" text-anchor="start" class="">A</text>
<text x="76" y="138" font-size="21" font-weight="600" fill="#17212B" text-anchor="start" class="">F1 effects</text>
<rect x="34" y="154" width="500" height="596" rx="12" fill="#FFFFFF" stroke="#D7E0E6" stroke-width="1"/>
<text x="558" y="141" font-size="28" font-weight="700" fill="#17212B" text-anchor="start" class="">B</text>
<text x="600" y="138" font-size="21" font-weight="600" fill="#17212B" text-anchor="start" class="">Retrieval ablation</text>
<rect x="558" y="154" width="280" height="596" rx="12" fill="#FFFFFF" stroke="#D7E0E6" stroke-width="1"/>
<text x="862" y="141" font-size="28" font-weight="700" fill="#17212B" text-anchor="start" class="">C</text>
<text x="904" y="138" font-size="21" font-weight="600" fill="#17212B" text-anchor="start" class="">Scenario-specific F1</text>
<rect x="862" y="154" width="304" height="596" rx="12" fill="#FFFFFF" stroke="#D7E0E6" stroke-width="1"/>
<rect x="356.70588235294116" y="190" width="1.2" height="508" rx="0" fill="#9AA4AD" stroke="none" stroke-width="0"/>
<text x="304.94117647058823" y="704" font-size="10.5" font-weight="400" fill="#5B6672" text-anchor="middle" class="">-0.20</text>
<text x="343.7647058823529" y="704" font-size="10.5" font-weight="400" fill="#5B6672" text-anchor="middle" class="">-0.05</text>
<text x="382.5882352941177" y="704" font-size="10.5" font-weight="400" fill="#5B6672" text-anchor="middle" class="">0.10</text>
<text x="421.4117647058823" y="704" font-size="10.5" font-weight="400" fill="#5B6672" text-anchor="middle" class="">0.25</text>
<text x="460.2352941176471" y="704" font-size="10.5" font-weight="400" fill="#5B6672" text-anchor="middle" class="">0.40</text>
<text x="499.05882352941177" y="704" font-size="10.5" font-weight="400" fill="#5B6672" text-anchor="middle" class="">0.55</text>
<text x="52" y="202" font-size="12.2" font-weight="600" fill="#17212B" text-anchor="start" class="">Autonomous − fixed</text>
<line x1="325.68303529411764" y1="200" x2="393.91797647058826" y2="200" stroke="#17212B" stroke-width="2"/>
<circle cx="359.4838352941176" cy="200" r="6" fill="#007C91" stroke="#007C91" stroke-width="2"/>
<text x="52" y="251" font-size="12.2" font-weight="400" fill="#17212B" text-anchor="start" class="">Autonomous − single</text>
<line x1="325.37451764705884" y1="249" x2="373.5716" y2="249" stroke="#17212B" stroke-width="2"/>
<circle cx="351.84983529411767" cy="249" r="6" fill="#FFFFFF" stroke="#007C91" stroke-width="2"/>
<text x="52" y="300" font-size="12.2" font-weight="600" fill="#17212B" text-anchor="start" class="">Qwen fixed − single</text>
<line x1="322.6265882352941" y1="298" x2="373.9608705882353" y2="298" stroke="#17212B" stroke-width="2"/>
<circle cx="349.0718823529412" cy="298" r="6" fill="#007C91" stroke="#007C91" stroke-width="2"/>
<text x="52" y="349" font-size="12.2" font-weight="400" fill="#17212B" text-anchor="start" class="">Gemma fixed − single</text>
<line x1="297.99124705882355" y1="347" x2="395.7566588235294" y2="347" stroke="#17212B" stroke-width="2"/>
<circle cx="349.42284705882355" cy="347" r="6" fill="#FFFFFF" stroke="#007C91" stroke-width="2"/>
<text x="52" y="398" font-size="12.2" font-weight="400" fill="#17212B" text-anchor="start" class="">gpt-oss fixed − single</text>
<line x1="354.94407058823526" y1="396" x2="445.9518588235294" y2="396" stroke="#17212B" stroke-width="2"/>
<circle cx="400.3624235294118" cy="396" r="6" fill="#FFFFFF" stroke="#007C91" stroke-width="2"/>
<text x="52" y="447" font-size="12.2" font-weight="400" fill="#17212B" text-anchor="start" class="">Worst-case fixed-team effect</text>
<line x1="297.99124705882355" y1="445" x2="365.8586588235294" y2="445" stroke="#17212B" stroke-width="2"/>
<circle cx="349.0718823529412" cy="445" r="6" fill="#FFFFFF" stroke="#007C91" stroke-width="2"/>
<text x="52" y="496" font-size="12.2" font-weight="600" fill="#17212B" text-anchor="start" class="">Evidence check retained − removed</text>
<line x1="351.70588235294116" y1="494" x2="361.70588235294116" y2="494" stroke="#17212B" stroke-width="2"/>
<circle cx="356.70588235294116" cy="494" r="6" fill="#007C91" stroke="#007C91" stroke-width="2"/>
<text x="52" y="545" font-size="12.2" font-weight="400" fill="#17212B" text-anchor="start" class="">Clinical-context agent retained − removed</text>
<line x1="351.70588235294116" y1="543" x2="361.70588235294116" y2="543" stroke="#17212B" stroke-width="2"/>
<circle cx="356.70588235294116" cy="543" r="6" fill="#FFFFFF" stroke="#007C91" stroke-width="2"/>
<text x="52" y="594" font-size="12.2" font-weight="600" fill="#17212B" text-anchor="start" class="">Qwen fixed − Gemma fixed</text>
<line x1="411.6077882352941" y1="592" x2="505.3327058823529" y2="592" stroke="#17212B" stroke-width="2"/>
<circle cx="457.74152941176476" cy="592" r="6" fill="#007C91" stroke="#007C91" stroke-width="2"/>
<text x="52" y="643" font-size="12.2" font-weight="600" fill="#17212B" text-anchor="start" class="">Qwen fixed − gpt-oss fixed</text>
<line x1="416.7907294117647" y1="641" x2="476.38898823529416" y2="641" stroke="#17212B" stroke-width="2"/>
<circle cx="445.6847529411765" cy="641" r="6" fill="#007C91" stroke="#007C91" stroke-width="2"/>
<text x="402" y="722" font-size="11.5" font-weight="600" fill="#5B6672" text-anchor="middle" class="">Effect (intervention − comparator)</text>
<circle cx="59" cy="740" r="5" fill="#007C91" stroke="#007C91" stroke-width="1"/>
<text x="70" y="744" font-size="10.5" font-weight="400" fill="#5B6672" text-anchor="start" class="">confirmatory / adjusted</text>
<circle cx="259" cy="740" r="5" fill="#FFFFFF" stroke="#007C91" stroke-width="1.5"/>
<text x="270" y="744" font-size="10.5" font-weight="400" fill="#5B6672" text-anchor="start" class="">descriptive / component</text>
<text x="582" y="193" font-size="14" font-weight="600" fill="#5B6672" text-anchor="start" class="">Affected-target recall</text>
<text x="582" y="226" font-size="13" font-weight="600" fill="#17212B" text-anchor="start" class="">0–30 days</text>
<line x1="596" y1="242" x2="800" y2="242" stroke="#D7E0E6" stroke-width="2"/>
<circle cx="596" cy="242" r="7" fill="#FFFFFF" stroke="#9AA4AD" stroke-width="2"/>
<line x1="596" y1="242" x2="800" y2="242" stroke="#007C91" stroke-width="4"/>
<circle cx="800" cy="242" r="8" fill="#007C91" stroke="#FFFFFF" stroke-width="1.5"/>
<text x="800" y="218" font-size="12" font-weight="700" fill="#007C91" text-anchor="middle" class="">1.00</text>
<text x="582" y="342" font-size="13" font-weight="600" fill="#17212B" text-anchor="start" class="">31–60 days</text>
<line x1="596" y1="358" x2="800" y2="358" stroke="#D7E0E6" stroke-width="2"/>
<circle cx="596" cy="358" r="7" fill="#FFFFFF" stroke="#9AA4AD" stroke-width="2"/>
<line x1="596" y1="358" x2="698" y2="358" stroke="#007C91" stroke-width="4"/>
<circle cx="698" cy="358" r="8" fill="#007C91" stroke="#FFFFFF" stroke-width="1.5"/>
<text x="698" y="334" font-size="12" font-weight="700" fill="#007C91" text-anchor="middle" class="">0.50</text>
<text x="582" y="458" font-size="13" font-weight="600" fill="#17212B" text-anchor="start" class="">61–90 days</text>
<line x1="596" y1="474" x2="800" y2="474" stroke="#D7E0E6" stroke-width="2"/>
<circle cx="596" cy="474" r="7" fill="#FFFFFF" stroke="#9AA4AD" stroke-width="2"/>
<line x1="596" y1="474" x2="749" y2="474" stroke="#007C91" stroke-width="4"/>
<circle cx="749" cy="474" r="8" fill="#007C91" stroke="#FFFFFF" stroke-width="1.5"/>
<text x="749" y="450" font-size="12" font-weight="700" fill="#007C91" text-anchor="middle" class="">0.75</text>
<text x="596" y="602" font-size="10.5" font-weight="400" fill="#5B6672" text-anchor="middle" class="">0.00</text>
<text x="647" y="602" font-size="10.5" font-weight="400" fill="#5B6672" text-anchor="middle" class="">0.25</text>
<text x="698" y="602" font-size="10.5" font-weight="400" fill="#5B6672" text-anchor="middle" class="">0.50</text>
<text x="749" y="602" font-size="10.5" font-weight="400" fill="#5B6672" text-anchor="middle" class="">0.75</text>
<text x="800" y="602" font-size="10.5" font-weight="400" fill="#5B6672" text-anchor="middle" class="">1.00</text>
<rect x="582" y="634" width="232" height="86" rx="8" fill="#F3F6F8" stroke="none" stroke-width="0"/>
<text x="598" y="663" font-size="12" font-weight="600" fill="#007C91" text-anchor="start" class="">With retrieval</text>
<text x="790" y="667" font-size="19" font-weight="700" fill="#007C91" text-anchor="end" class="">0.75</text>
<text x="598" y="694" font-size="12" font-weight="600" fill="#5B6672" text-anchor="start" class="">Without retrieval</text>
<text x="790" y="698" font-size="19" font-weight="700" fill="#5B6672" text-anchor="end" class="">0.00</text>
<text x="698" y="735" font-size="10.5" font-weight="400" fill="#5B6672" text-anchor="middle" class="">Aggregate difference 0.75 (95% CI 0.50–0.92)</text>
<text x="960" y="222" font-size="10.5" font-weight="600" fill="#5B6672" text-anchor="middle" class="" transform="rotate(-45 960 222)">0–30 d</text>
<text x="1001" y="222" font-size="10.5" font-weight="600" fill="#5B6672" text-anchor="middle" class="" transform="rotate(-45 1001 222)">31–60 d</text>
<text x="1042" y="222" font-size="10.5" font-weight="600" fill="#5B6672" text-anchor="middle" class="" transform="rotate(-45 1042 222)">61–90 d</text>
<text x="1080" y="190" font-size="10.5" font-weight="600" fill="#5B6672" text-anchor="middle"><tspan x="1080" dy="0">Other</tspan><tspan x="1080" dy="13.125">CVE</tspan></text>
<text x="1127" y="190" font-size="10.5" font-weight="600" fill="#5B6672" text-anchor="middle"><tspan x="1127" dy="0">Mis-</tspan><tspan x="1127" dy="13.125">config.</tspan></text>
<text x="936" y="282" font-size="10.5" font-weight="600" fill="#17212B" text-anchor="end" class="">Single-RAG</text>
<rect x="942" y="248" width="38" height="59" rx="2" fill="rgb(32,141,159)" stroke="#FFFFFF" stroke-width="1"/>
<text x="961" y="282" font-size="10.5" font-weight="700" fill="#FFFFFF" text-anchor="middle" class="">0.857</text>
<rect x="983" y="248" width="38" height="59" rx="2" fill="rgb(56,153,169)" stroke="#FFFFFF" stroke-width="1"/>
<text x="1002" y="282" font-size="10.5" font-weight="700" fill="#FFFFFF" text-anchor="middle" class="">0.750</text>
<rect x="1024" y="248" width="38" height="59" rx="2" fill="rgb(32,141,159)" stroke="#FFFFFF" stroke-width="1"/>
<text x="1043" y="282" font-size="10.5" font-weight="700" fill="#FFFFFF" text-anchor="middle" class="">0.857</text>
<rect x="1065" y="248" width="38" height="59" rx="2" fill="rgb(75,163,177)" stroke="#FFFFFF" stroke-width="1"/>
<text x="1084" y="282" font-size="10.5" font-weight="700" fill="#FFFFFF" text-anchor="middle" class="">0.667</text>
<rect x="1106" y="248" width="38" height="59" rx="2" fill="rgb(224,240,242)" stroke="#FFFFFF" stroke-width="1"/>
<text x="1125" y="282" font-size="10.5" font-weight="700" fill="#17212B" text-anchor="middle" class="">0.000</text>
<text x="936" y="344" font-size="10.5" font-weight="600" fill="#17212B" text-anchor="end" class="">Autonomous</text>
<rect x="942" y="310" width="38" height="59" rx="2" fill="rgb(75,163,177)" stroke="#FFFFFF" stroke-width="1"/>
<text x="961" y="344" font-size="10.5" font-weight="700" fill="#FFFFFF" text-anchor="middle" class="">0.667</text>
<rect x="983" y="310" width="38" height="59" rx="2" fill="rgb(56,153,169)" stroke="#FFFFFF" stroke-width="1"/>
<text x="1002" y="344" font-size="10.5" font-weight="700" fill="#FFFFFF" text-anchor="middle" class="">0.750</text>
<rect x="1024" y="310" width="38" height="59" rx="2" fill="rgb(75,163,177)" stroke="#FFFFFF" stroke-width="1"/>
<text x="1043" y="344" font-size="10.5" font-weight="700" fill="#FFFFFF" text-anchor="middle" class="">0.667</text>
<rect x="1065" y="310" width="38" height="59" rx="2" fill="rgb(37,143,161)" stroke="#FFFFFF" stroke-width="1"/>
<text x="1084" y="344" font-size="10.5" font-weight="700" fill="#FFFFFF" text-anchor="middle" class="">0.833</text>
<rect x="1106" y="310" width="38" height="59" rx="2" fill="rgb(224,240,242)" stroke="#FFFFFF" stroke-width="1"/>
<text x="1125" y="344" font-size="10.5" font-weight="700" fill="#17212B" text-anchor="middle" class="">0.000</text>
<text x="936" y="406" font-size="10.5" font-weight="600" fill="#17212B" text-anchor="end" class="">Fixed team</text>
<rect x="942" y="372" width="38" height="59" rx="2" fill="rgb(25,137,156)" stroke="#FFFFFF" stroke-width="1"/>
<text x="961" y="406" font-size="10.5" font-weight="700" fill="#FFFFFF" text-anchor="middle" class="">0.889</text>
<rect x="983" y="372" width="38" height="59" rx="2" fill="rgb(96,174,187)" stroke="#FFFFFF" stroke-width="1"/>
<text x="1002" y="406" font-size="10.5" font-weight="700" fill="#17212B" text-anchor="middle" class="">0.571</text>
<rect x="1024" y="372" width="38" height="59" rx="2" fill="rgb(32,141,159)" stroke="#FFFFFF" stroke-width="1"/>
<text x="1043" y="406" font-size="10.5" font-weight="700" fill="#FFFFFF" text-anchor="middle" class="">0.857</text>
<rect x="1065" y="372" width="38" height="59" rx="2" fill="rgb(86,169,182)" stroke="#FFFFFF" stroke-width="1"/>
<text x="1084" y="406" font-size="10.5" font-weight="700" fill="#17212B" text-anchor="middle" class="">0.615</text>
<rect x="1106" y="372" width="38" height="59" rx="2" fill="rgb(224,240,242)" stroke="#FFFFFF" stroke-width="1"/>
<text x="1125" y="406" font-size="10.5" font-weight="700" fill="#17212B" text-anchor="middle" class="">0.000</text>
<text x="1000" y="461" font-size="12" font-weight="600" fill="#5B6672" text-anchor="middle" class="">Recent KEV</text>
<line x1="950" y1="478" x2="1055" y2="478" stroke="#007C91" stroke-width="3"/>
<text x="1084" y="461" font-size="12" font-weight="600" fill="#5B6672" text-anchor="middle" class="">Other</text>
<line x1="1068" y1="478" x2="1102" y2="478" stroke="#2F6B9A" stroke-width="3"/>
<text x="1133" y="457" font-size="12" font-weight="600" fill="#5B6672" text-anchor="middle"><tspan x="1133" dy="0">Rule-</tspan><tspan x="1133" dy="15">based</tspan></text>
<line x1="1115" y1="482" x2="1151" y2="482" stroke="#E69F00" stroke-width="3"/>
<rect x="886" y="510" width="256" height="86" rx="8" fill="#F3F6F8" stroke="none" stroke-width="0"/>
<text x="1014" y="539" font-size="12" font-weight="600" fill="#17212B" text-anchor="middle" class="">All three core Qwen configurations</text>
<text x="1014" y="571" font-size="13" font-weight="700" fill="#007C91" text-anchor="middle" class="">Clean controls: 0 FP / 50 cells each</text>
<rect x="886" y="622" width="256" height="96" rx="8" fill="#FFF5DC" stroke="none" stroke-width="0"/>
<text x="1014" y="651" font-size="12" font-weight="700" fill="#E69F00" text-anchor="middle" class="">Shared limitation</text>
<text x="1014" y="684" font-size="14" font-weight="700" fill="#17212B" text-anchor="middle"><tspan x="1014" dy="0">Synthetic misconfiguration F1 =</tspan><tspan x="1014" dy="17.5">0</tspan></text>
</svg>